{"title":"From Paris with Love (2010) R5 DVDRip XviD-MAX","uid":5391314,"size":840752683,"categoryP":"video","categoryS":"movies","magnet":"?xt=urn:btih:8de60a4af7b95f0b8b224ca43668e262b0970fce&amp;dn=From+Paris+with+Love+%282010%29+R5+DVDRip+XviD-MAX&amp;tr=udp%3A%2F%2Ftracker.openbittorrent.com%3A80&amp;tr=udp%3A%2F%2Fopen.demonii.com%3A1337&amp;tr=udp%3A%2F%2Ftracker.coppersurfer.tk%3A6969&amp;tr=udp%3A%2F%2Fexodus.desync.com%3A6969","seeders":5,"leechers":2,"uploader":"extremezone","files":-1,"time":1267072933,"description":"From Paris with Love DVDRip XviD-DiAMOND    &lt;a href=&quot;\nhttp://thepiratebay.se/torrent/5590156/From_Paris_with_Love_DVDRip_XviD-DiAMOND&quot; rel=&quot;nofollow&quot; target=&quot;_NEW&quot;&gt;\nhttp://thepiratebay.se/torrent/5590156/From_Paris_with_Love_DVDRip_XviD-DiAMOND&lt;/a&gt;\n\nFrom Paris with Love (2010) R5 DVDRip XviD-MAX\n\nFormat                           : AVI\nFormat/Info                      : Audio Video Interleave\nFormat profile                   : OpenDML\nFile size                        : 801 MiB\nDuration                         : 1h 27mn\nOverall bit rate                 : 1 282 Kbps\nWriting application              : VirtualDubMod 1.5.10.2 (build 2542/release)\nWriting library                  : VirtualDubMod build 2542/release\nOriginal source form             : MAX TORRENTZ\nCopyright                        : SIGISMUNT\n\nVideo\nFormat                           : xvid\nCodec ID                         : xvid\nDuration                         : 1h 27mn\nBit rate                         : 1 150 Kbps \nWidth                            : 720 pixels\nHeight                           : 304 pixels\nDisplay aspect ratio             : 2.35:1\nFrame rate                       : 25.000 fps \nResolution                       : 24 bits\nBits/(Pixel*Frame)               : 0.210\nStream size                      : 719 MiB (90%)\n\nAudio\nID                               : 1\nFormat                           : MPEG Audio\nFormat version                   : Version 1\nFormat profile                   : Layer 3\nCodec ID                         : 55\nCodec ID/Hint                    : MP3\nDuration                         : 1h 27mn\nBit rate mode                    : Constant\nBit rate                         : 128 Kbps\nChannel(s)                       : 2 channels\nSampling rate                    : 48.0 KHz\nResolution                       : 16 bits\nStream size                      : 80.0 MiB (10%)\nAlignment                        : Aligned on interleaves\nInterleave, duration             : 667 ms (16.69 video frames)\nInterleave, preload duration     : 216 ms\n\nEncode Note:\n\nOriginal R5 DVDRip videosource , clear MENTiON audio source perfectly synced (-100ms) &lt;a href=&quot;\nhttp://www.imdb.com/title/tt1179034/&quot; rel=&quot;nofollow&quot; target=&quot;_NEW&quot;&gt;\nhttp://www.imdb.com/title/tt1179034/&lt;/a&gt;\n\nScreens: &lt;a href=&quot;\nhttp://www.postimg.com/image/12000/11580.jpg&quot; rel=&quot;nofollow&quot; target=&quot;_NEW&quot;&gt;\nhttp://www.postimg.com/image/12000/11580.jpg&lt;/a&gt; &lt;a href=&quot;\nhttp://www.postimg.com/image/12000/11581.jpg&quot; rel=&quot;nofollow&quot; target=&quot;_NEW&quot;&gt;\nhttp://www.postimg.com/image/12000/11581.jpg&lt;/a&gt; &lt;a href=&quot;\nhttp://www.postimg.com/image/12000/11582.jpg&quot; rel=&quot;nofollow&quot; target=&quot;_NEW&quot;&gt;\nhttp://www.postimg.com/image/12000/11582.jpg&lt;/a&gt; &lt;a href=&quot;\nhttp://www.postimg.com/image/12000/11583.jpg&quot; rel=&quot;nofollow&quot; target=&quot;_NEW&quot;&gt;\nhttp://www.postimg.com/image/12000/11583.jpg&lt;/a&gt; &lt;a href=&quot;\nhttp://www.postimg.com/image/12000/11584.jpg&quot; rel=&quot;nofollow&quot; target=&quot;_NEW&quot;&gt;\nhttp://www.postimg.com/image/12000/11584.jpg&lt;/a&gt;\n\nScreenCaps: &lt;a href=&quot;\nhttp://www.postimg.com/image/12000/11585.jpg&quot; rel=&quot;nofollow&quot; target=&quot;_NEW&quot;&gt;\nhttp://www.postimg.com/image/12000/11585.jpg&lt;/a&gt;\n\nFrom Paris with Love (2010) R5 DVDRip XviD-MAX Torrent Free Download &lt;a href=&quot;\nhttp://thepiratebay.se/user/extremezone/0/7&quot; rel=&quot;nofollow&quot; target=&quot;_NEW&quot;&gt;\nhttp://thepiratebay.se/user/extremezone/0/7&lt;/a&gt;\n\nHow To Get Your Maxspeed (uTorrent)\n\nTorrent Client - Preferences - Bandwidth - Number of connections - Set aprox. 500 for each \nTorrent Client - Preferences - BiTorrent - Protocol Encryption - Forced\nBandwidth Allocation - High (Set download/upload limit - Unlimited)\nStop Other Active Torrents - Enjoy and Seed at least 1:1 ratio","torrent":{"xt":"urn:btih:8de60a4af7b95f0b8b224ca43668e262b0970fce","amp;dn":"From+Paris+with+Love+%282010%29+R5+DVDRip+XviD-MAX","amp;tr":["udp%3A%2F%2Ftracker.openbittorrent.com%3A80","udp%3A%2F%2Fopen.demonii.com%3A1337","udp%3A%2F%2Ftracker.coppersurfer.tk%3A6969","udp%3A%2F%2Fexodus.desync.com%3A6969"],"infoHash":"8de60a4af7b95f0b8b224ca43668e262b0970fce","infoHashBuffer":{"type":"Buffer","data":[141,230,10,74,247,185,95,11,139,34,76,164,54,104,226,98,176,151,15,206]},"announce":[],"urlList":[]}}